# Blender v2.91.0 OBJ File: 'fighter.blend'
# www.blender.org
mtllib fighter.mtl
o Cube_Cube.002
v 0.554098 -0.090026 -0.500000
v 0.675430 0.410352 -0.495094
v 0.572767 -0.160520 -1.900000
v 0.715355 0.425130 -1.887340
v 1.900376 -0.294019 0.034985
v 2.193185 -0.427356 -0.234986
v 0.135000 0.014470 1.691034
v 0.135001 -0.355690 2.396835
v 1.282919 0.283785 -0.352888
v 1.359970 0.245435 -1.274690
v 1.190432 -0.126874 -1.274690
v 1.083657 -0.123248 -0.299082
v 1.122385 0.189612 -2.564024
v 1.070966 0.076694 -2.564024
v -0.554098 -0.090026 -0.500000
v -0.675430 0.410352 -0.495094
v -0.572767 -0.160520 -1.900000
v -0.715355 0.425130 -1.887340
v -0.000000 0.082145 -2.122155
v -0.000000 0.323274 -2.246050
v -0.000000 -0.181729 -0.451647
v 0.000000 0.473920 -0.449360
v -1.900376 -0.294019 0.034985
v -2.193185 -0.427356 -0.234986
v -0.135000 0.014470 1.691034
v -0.135001 -0.355690 2.396835
v 0.000000 -0.355690 2.496835
v 0.000000 0.014470 1.791034
v -1.282919 0.283785 -0.352888
v -1.359970 0.245435 -1.274690
v -1.190432 -0.126874 -1.274690
v -1.083657 -0.123248 -0.299082
v -1.122385 0.189612 -2.564024
v -1.070966 0.076694 -2.564024
vt 0.194994 0.375505
vt 0.000172 0.399671
vt 0.177356 0.219972
vt 0.697026 0.744364
vt 0.793972 0.499501
vt 0.800909 0.785358
vt 0.414169 0.354497
vt 0.288112 0.113840
vt 0.408489 0.049710
vt 0.903186 0.600118
vt 0.847740 0.728250
vt 0.801252 0.600023
vt 0.896590 0.249534
vt 0.827945 0.241055
vt 0.903186 0.000172
vt 0.910843 0.614298
vt 0.984942 0.592779
vt 0.999828 0.744007
vt 0.609060 0.473954
vt 0.414513 0.463797
vt 0.468097 0.417200
vt 0.382030 0.859051
vt 0.414169 0.741172
vt 0.405106 0.875613
vt 0.777831 0.016730
vt 0.800909 0.000172
vt 0.990018 0.496987
vt 0.943000 0.122350
vt 0.999828 0.000172
vt 0.698987 0.507348
vt 0.592062 0.639017
vt 0.903529 0.506911
vt 0.207547 0.000172
vt 0.299334 0.349075
vt 0.846788 0.465481
vt 0.608014 0.860057
vt 0.825968 0.462909
vt 0.391093 0.724609
vt 0.000172 0.399671
vt 0.194994 0.375505
vt 0.177356 0.219972
vt 0.697026 0.744364
vt 0.288112 0.113840
vt 0.903186 0.600118
vt 0.801252 0.600023
vt 0.896590 0.249534
vt 0.903186 0.000172
vt 0.827945 0.241055
vt 0.910843 0.614298
vt 0.999828 0.744007
vt 0.984942 0.592779
vt 0.609060 0.473954
vt 0.414513 0.463797
vt 0.592062 0.639017
vt 0.382030 0.859051
vt 0.391093 0.724609
vt 0.777831 0.016730
vt 0.698987 0.507348
vt 0.990018 0.496987
vt 0.943000 0.122350
vt 0.903529 0.506911
vt 0.207547 0.000172
vt 0.299334 0.349075
vt 0.846788 0.465481
vt 0.608014 0.860057
vt 0.825968 0.462909
vt 0.054234 0.445713
vt 0.890222 0.711042
vt 0.054234 0.445713
vt 0.468097 0.417200
vt 0.999828 0.000172
vn 0.6140 0.7891 0.0185
vn -0.3370 -0.9300 -0.1469
vn -0.0995 0.9916 -0.0831
vn 0.4568 -0.0921 -0.8848
vn 0.6443 -0.2934 -0.7062
vn -0.3144 0.2741 0.9088
vn -0.2697 -0.9469 0.1752
vn 0.3253 0.8374 0.4392
vn -0.0436 -0.9973 -0.0588
vn 0.9356 0.3128 0.1640
vn -0.0615 -0.9981 -0.0030
vn -0.1799 0.2150 0.9599
vn 0.3595 0.9270 -0.1064
vn 0.2530 0.9673 0.0175
vn -0.8166 0.2104 -0.5375
vn 0.2267 -0.9586 -0.1724
vn 0.9000 -0.4099 -0.1481
vn 0.1053 0.9736 0.2024
vn -0.6140 0.7891 0.0185
vn 0.3370 -0.9300 -0.1469
vn 0.0995 0.9916 -0.0831
vn -0.4568 -0.0921 -0.8848
vn -0.6443 -0.2934 -0.7062
vn 0.3144 0.2741 0.9088
vn 0.2629 -0.9645 -0.0252
vn -0.3253 0.8374 0.4392
vn -0.1572 -0.9853 -0.0676
vn -0.9531 -0.2330 0.1934
vn -0.0034 -0.9987 0.0503
vn 0.3496 0.0756 0.9339
vn -0.3595 0.9270 -0.1064
vn -0.2530 0.9673 0.0175
vn 0.8166 0.2104 -0.5375
vn -0.2267 -0.9586 -0.1724
vn -0.9000 -0.4099 -0.1481
vn -0.1472 0.9689 0.1987
vn 0.5778 0.7796 0.2416
vn 0.1675 -0.9845 0.0518
vn 0.0946 0.9954 0.0133
vn 0.1497 -0.4519 -0.8794
vn -0.2629 -0.9645 -0.0252
vn 0.1572 -0.9853 -0.0676
vn 0.9531 -0.2330 0.1934
vn 0.0034 -0.9987 0.0503
vn -0.3496 0.0756 0.9339
vn 0.2091 0.9776 -0.0232
vn -0.7485 0.3408 -0.5689
vn 0.1472 0.9689 0.1987
vn -0.5778 0.7796 0.2416
vn -0.1675 -0.9845 0.0518
vn -0.0946 0.9954 0.0133
vn -0.1497 -0.4519 -0.8794
vn 0.2697 -0.9469 0.1752
vn 0.0436 -0.9973 -0.0588
vn -0.9356 0.3128 0.1640
vn 0.0615 -0.9981 -0.0030
vn 0.1799 0.2150 0.9599
vn -0.2091 0.9776 -0.0232
vn 0.7485 0.3408 -0.5689
vn -0.1053 0.9736 0.2024
usemtl None
s off
f 9/1/1 6/2/1 10/3/1
f 3/4/2 21/5/2 19/6/2
f 22/7/3 4/8/3 20/9/3
f 3/10/4 20/11/4 4/12/4
f 11/13/5 10/14/5 6/15/5
f 9/16/6 12/17/6 5/18/6
f 12/19/7 6/20/7 5/21/7
f 8/22/8 28/23/8 27/24/8
f 21/5/9 8/25/9 27/26/9
f 1/27/10 7/28/10 8/29/10
f 1/30/11 11/31/11 12/19/11
f 2/32/12 12/17/12 9/16/12
f 4/8/13 10/3/13 13/33/13
f 2/34/14 10/3/14 4/8/14
f 4/12/15 14/35/15 3/10/15
f 11/31/16 3/4/16 14/36/16
f 11/13/17 13/37/17 10/14/17
f 22/7/18 7/38/18 2/34/18
f 24/39/19 29/40/19 30/41/19
f 21/5/20 17/42/20 19/6/20
f 18/43/21 22/7/21 20/9/21
f 20/11/22 17/44/22 18/45/22
f 31/46/23 24/47/23 30/48/23
f 29/49/24 23/50/24 32/51/24
f 32/52/25 24/53/25 31/54/25
f 26/55/26 28/23/26 25/56/26
f 21/5/27 26/57/27 15/58/27
f 15/59/28 25/60/28 16/61/28
f 15/58/29 31/54/29 17/42/29
f 16/61/30 32/51/30 15/59/30
f 18/43/31 33/62/31 30/41/31
f 30/41/32 16/63/32 18/43/32
f 34/64/33 18/45/33 17/44/33
f 31/54/34 34/65/34 17/42/34
f 33/66/35 31/46/35 30/48/35
f 22/7/36 25/56/36 28/23/36
f 9/1/37 5/67/37 6/2/37
f 3/4/38 1/30/38 21/5/38
f 22/7/39 2/34/39 4/8/39
f 3/10/40 19/68/40 20/11/40
f 12/19/41 11/31/41 6/20/41
f 8/22/8 7/38/8 28/23/8
f 21/5/42 1/30/42 8/25/42
f 1/27/43 2/32/43 7/28/43
f 1/30/44 3/4/44 11/31/44
f 2/32/45 1/27/45 12/17/45
f 2/34/46 9/1/46 10/3/46
f 4/12/47 13/37/47 14/35/47
f 11/13/17 14/35/17 13/37/17
f 22/7/48 28/23/48 7/38/48
f 24/39/49 23/69/49 29/40/49
f 21/5/50 15/58/50 17/42/50
f 18/43/51 16/63/51 22/7/51
f 20/11/52 19/68/52 17/44/52
f 32/52/53 23/70/53 24/53/53
f 26/55/26 27/24/26 28/23/26
f 21/5/54 27/26/54 26/57/54
f 15/59/55 26/71/55 25/60/55
f 15/58/56 32/52/56 31/54/56
f 16/61/57 29/49/57 32/51/57
f 30/41/58 29/40/58 16/63/58
f 34/64/59 33/66/59 18/45/59
f 33/66/35 34/64/35 31/46/35
f 22/7/60 16/63/60 25/56/60
