# Blender v2.91.0 OBJ File: ''
# www.blender.org
o Plane
v 101.000000 0.000000 67.333328
v -101.000000 0.000000 67.333336
v -101.000000 0.000000 33.666672
v -101.000000 0.000000 0.000004
v -101.000000 0.000000 -33.666660
v -101.000000 0.000000 -67.333328
v 101.000000 0.000000 -101.000000
v -101.000000 0.000000 -101.000000
v 101.000000 0.000000 101.000000
v -101.000000 0.000000 101.000000
v 101.000000 0.000000 33.666660
v 101.000000 0.000000 -0.000004
v 101.000000 0.000000 -33.666672
v 101.000000 0.000000 -67.333336
v -67.333328 29.000000 101.000000
v -33.666660 0.000000 101.000000
v 0.000004 0.000000 101.000000
v 33.666672 0.000000 101.000000
v 67.249535 6.725642 102.938744
v 67.249527 6.725642 -99.061256
v 33.666660 0.000000 -101.000000
v -0.000004 0.000000 -101.000000
v -33.666672 0.000000 -101.000000
v -67.333336 29.000000 -101.000000
v 67.249527 6.725642 69.272072
v 33.666660 0.000000 67.333328
v -0.000004 0.000000 67.333328
v -33.666672 0.000000 67.333328
v -67.333336 29.000000 67.333328
v 67.249527 6.725642 35.605408
v 33.666660 0.000000 33.666664
v -0.000004 0.000000 33.666664
v -33.666672 0.000000 33.666668
v -67.333336 29.000000 33.666672
v 67.249527 6.725642 1.938739
v 33.666660 0.000000 -0.000001
v -0.000004 0.000000 0.000000
v -33.666672 0.000000 0.000001
v -67.333336 29.000000 0.000003
v 67.249527 6.725642 -31.727930
v 33.666660 0.000000 -33.666668
v -0.000004 0.000000 -33.666664
v -33.666672 0.000000 -33.666664
v -67.333336 29.000000 -33.666664
v 67.249527 6.725642 -65.394592
v 33.666660 0.000000 -67.333336
v -0.000004 0.000000 -67.333336
v -33.666672 0.000000 -67.333336
v -67.333336 29.000000 -67.333328
vt 0.000000 0.000000
vt 1.000000 1.000000
vt 0.000000 1.000000
vt 1.000000 0.000000
vt 0.000000 1.000000
vt 0.000000 0.000000
vt 0.000000 0.000000
vt 1.000000 1.000000
vt 0.000000 1.000000
vt 0.000000 0.000000
vt 1.000000 1.000000
vt 0.000000 1.000000
vt 0.000000 0.000000
vt 1.000000 1.000000
vt 0.000000 1.000000
vt 1.000000 0.000000
vt 0.000000 1.000000
vt 0.000000 0.000000
vt 0.000000 0.000000
vt 1.000000 1.000000
vt 0.000000 1.000000
vt 1.000000 0.000000
vt 0.000000 1.000000
vt 0.000000 0.000000
vt 1.000000 0.000000
vt 0.000000 1.000000
vt 0.000000 0.000000
vt 0.000000 0.000000
vt 1.000000 1.000000
vt 0.000000 1.000000
vt 0.000000 0.000000
vt 1.000000 1.000000
vt 0.000000 1.000000
vt 0.000000 0.000000
vt 1.000000 1.000000
vt 0.000000 1.000000
vt 1.000000 0.000000
vt 0.000000 1.000000
vt 0.000000 0.000000
vt 0.000000 0.000000
vt 1.000000 1.000000
vt 0.000000 1.000000
vt 1.000000 0.000000
vt 0.000000 1.000000
vt 0.000000 0.000000
vt 0.000000 0.000000
vt 1.000000 1.000000
vt 0.000000 1.000000
vt 0.000000 0.000000
vt 1.000000 1.000000
vt 0.000000 1.000000
vt 1.000000 0.000000
vt 0.000000 1.000000
vt 0.000000 0.000000
vt 1.000000 0.000000
vt 0.000000 1.000000
vt 0.000000 0.000000
vt 1.000000 0.000000
vt 0.000000 1.000000
vt 0.000000 0.000000
vt 1.000000 0.000000
vt 0.000000 1.000000
vt 0.000000 0.000000
vt 0.000000 0.000000
vt 1.000000 1.000000
vt 0.000000 1.000000
vt 1.000000 0.000000
vt 0.000000 1.000000
vt 0.000000 0.000000
vt 0.000000 0.000000
vt 1.000000 1.000000
vt 0.000000 1.000000
vt 0.000000 0.000000
vt 1.000000 1.000000
vt 0.000000 1.000000
vt 0.000000 0.000000
vt 1.000000 1.000000
vt 0.000000 1.000000
vt 1.000000 0.000000
vt 0.000000 1.000000
vt 0.000000 0.000000
vt 1.000000 0.000000
vt 0.000000 1.000000
vt 0.000000 0.000000
vt 0.000000 0.000000
vt 1.000000 1.000000
vt 0.000000 1.000000
vt 0.000000 0.000000
vt 1.000000 1.000000
vt 0.000000 1.000000
vt 0.000000 0.000000
vt 1.000000 1.000000
vt 0.000000 1.000000
vt 0.000000 0.000000
vt 1.000000 1.000000
vt 0.000000 1.000000
vt 0.000000 0.000000
vt 1.000000 1.000000
vt 0.000000 1.000000
vt 1.000000 0.000000
vt 0.000000 1.000000
vt 0.000000 0.000000
vt 1.000000 0.000000
vt 0.000000 1.000000
vt 0.000000 0.000000
vt 1.000000 0.000000
vt 0.000000 1.000000
vt 0.000000 0.000000
vt 1.000000 0.000000
vt 1.000000 1.000000
vt 1.000000 0.000000
vt 1.000000 0.000000
vt 1.000000 1.000000
vt 1.000000 0.000000
vt 1.000000 1.000000
vt 1.000000 0.000000
vt 1.000000 0.000000
vt 1.000000 0.000000
vt 1.000000 1.000000
vt 1.000000 0.000000
vt 1.000000 1.000000
vt 1.000000 0.000000
vt 1.000000 0.000000
vt 1.000000 1.000000
vt 1.000000 1.000000
vt 1.000000 1.000000
vt 1.000000 1.000000
vt 1.000000 0.000000
vt 1.000000 1.000000
vt 1.000000 0.000000
vt 1.000000 1.000000
vt 1.000000 1.000000
vt 1.000000 0.000000
vt 1.000000 0.000000
vt 1.000000 0.000000
vt 1.000000 1.000000
vt 1.000000 1.000000
vt 1.000000 1.000000
vn -0.6526 0.7577 0.0000
vn 0.0000 1.0000 0.0000
vn -0.1964 0.9805 0.0000
vn 0.1954 0.9807 0.0000
vn 0.6526 0.7577 0.0000
s off
f 6/1/1 44/2/1 49/3/1
f 28/4/2 32/5/2 33/6/2
f 25/7/3 18/8/3 19/9/3
f 40/10/4 12/11/4 13/12/4
f 45/13/4 13/14/4 14/15/4
f 3/16/1 39/17/1 4/18/1
f 3/19/1 29/20/1 34/21/1
f 10/22/1 29/23/1 2/24/1
f 47/25/2 21/26/2 22/27/2
f 49/28/5 43/29/5 48/30/5
f 47/31/2 41/32/2 46/33/2
f 24/34/5 48/35/5 23/36/5
f 38/37/2 42/38/2 43/39/2
f 42/40/2 36/41/2 41/42/2
f 36/43/3 40/44/3 41/45/3
f 5/46/1 39/47/1 44/48/1
f 44/49/5 38/50/5 43/51/5
f 41/52/3 45/53/3 46/54/3
f 27/55/2 31/56/2 32/57/2
f 26/58/3 30/59/3 31/60/3
f 43/61/2 47/62/2 48/63/2
f 35/64/4 11/65/4 12/66/4
f 31/67/3 35/68/3 36/69/3
f 28/70/5 15/71/5 16/72/5
f 27/73/2 16/74/2 17/75/2
f 26/76/2 17/77/2 18/78/2
f 46/79/3 20/80/3 21/81/3
f 25/82/4 9/83/4 1/84/4
f 20/85/4 14/86/4 7/87/4
f 39/88/5 33/89/5 38/90/5
f 38/91/2 32/92/2 37/93/2
f 30/94/4 1/95/4 11/96/4
f 34/97/5 28/98/5 33/99/5
f 32/100/2 36/101/2 37/102/2
f 6/103/1 24/104/1 8/105/1
f 48/106/2 22/107/2 23/108/2
f 6/1/1 5/109/1 44/2/1
f 28/4/2 27/110/2 32/5/2
f 25/7/3 26/58/3 18/8/3
f 40/10/4 35/111/4 12/11/4
f 45/13/4 40/112/4 13/14/4
f 3/16/1 34/113/1 39/17/1
f 3/19/1 2/114/1 29/20/1
f 10/22/1 15/71/1 29/23/1
f 47/25/2 46/115/2 21/26/2
f 49/28/5 44/116/5 43/29/5
f 47/31/2 42/117/2 41/32/2
f 24/34/5 49/118/5 48/35/5
f 38/37/2 37/119/2 42/38/2
f 42/40/2 37/120/2 36/41/2
f 36/43/3 35/121/3 40/44/3
f 5/46/1 4/122/1 39/47/1
f 44/49/5 39/123/5 38/50/5
f 41/52/3 40/124/3 45/53/3
f 27/55/2 26/125/2 31/56/2
f 26/58/3 25/126/3 30/59/3
f 43/61/2 42/127/2 47/62/2
f 35/64/4 30/128/4 11/65/4
f 31/67/3 30/129/3 35/68/3
f 28/70/5 29/130/5 15/71/5
f 27/73/2 28/4/2 16/74/2
f 26/76/2 27/55/2 17/77/2
f 46/79/3 45/131/3 20/80/3
f 25/82/4 19/132/4 9/83/4
f 20/85/4 45/133/4 14/86/4
f 39/88/5 34/134/5 33/89/5
f 38/91/2 33/135/2 32/92/2
f 30/94/4 25/82/4 1/95/4
f 34/97/5 29/130/5 28/98/5
f 32/100/2 31/136/2 36/101/2
f 6/103/1 49/137/1 24/104/1
f 48/106/2 47/138/2 22/107/2
